# xmcd
#
# Track frame offsets:
#	150
#	16480
#	33594
#	50883
#	63435
#	81477
#	96742
#	112608
#	124926
#	139860
#	160793
#	176052
#	194094
#	212260
#	230087
#	246822
#
# Disc length: 3569 seconds
#
# Revision: 1
# Processed by: cddbd v1.5.2PL0 Copyright (c) Steve Scherf et al.
# Submitted via: EasyCDDAExtractor 12.1.0.1
#
DISCID=ed0def10
DTITLE=Various Artist - The Voice Of Poland
DYEAR=1900
DGENRE=Pop
TTITLE0=Olga Jankowska - Valerie
TTITLE1=Oksana Predko - Secrets
TTITLE2=Mateusz Ziółko - When The Man Loves A Woman
TTITLE3=Jagoda Kret - You Make Me Feel Like A Natural Woman
TTITLE4=Ernest Staniaszek - Have I Told You Lately
TTITLE5=Nella Marczewski - Good Luck
TTITLE6=Joanna Smajdor - This Love
TTITLE7=Maria Rodrigez - The Girl From Ipanema
TTITLE8=Kasia Stanek - Running Up That Hill
TTITLE9=Magda Meisel - Shape Of My Heart
TTITLE10=Maia Lasota - Next To Me
TTITLE11=Arek Kłusowski - Nella Marczewski
TTITLE12=Marzena Ugorna - Jestem Kamieniem
TTITLE13=Michał Grobelny - When I Was Your Man
TTITLE14=Natalia Krakowiak - Listen
TTITLE15=Michał Malicki - My Way
EXTD=
EXTT0=
EXTT1=
EXTT2=
EXTT3=
EXTT4=
EXTT5=
EXTT6=
EXTT7=
EXTT8=
EXTT9=
EXTT10=
EXTT11=
EXTT12=
EXTT13=
EXTT14=
EXTT15=
PLAYORDER=
